ffmpeg started on 2025-06-16 at 16:13:19
Report written to "D:\Convert\FFMetrics\reports\psnr_report-6.txt"
Log level: 32
Command line:
ffmpeg -hide_banner -nostdin -i "G:\\\xc0\xed\xe8\xec\xe5\\[\xd2\xee\xef]\\\xd0\xfb\xf6\xe0\xf0\xfc-\xe2\xe0\xec\xef\xe8\xf0\\\xd2\xc2-1\\[JamClub] Vampire Knight - 03_HEVC.mkv" -i "G:\\\xc0\xed\xe8\xec\xe5\\[\xd2\xee\xef]\\\xd0\xfb\xf6\xe0\xf0\xfc-\xe2\xe0\xec\xef\xe8\xf0\\\xd2\xc2-1\\[JamClub] Vampire Knight - 03.mp4" -lavfi "[0:v]settb=AVTB,setpts=PTS-STARTPTS,format=pix_fmts=yuv420p10,fps=24000/1001,scale=1920:1080:flags=bicubic[main];[1:v]settb=AVTB,setpts=PTS-STARTPTS,format=pix_fmts=yuv420p,fps=24000/1001,scale=1920:1080:flags=bicubic[ref];[main][ref]psnr=eof_action=endall:stats_file='D\\:/Convert/FFMetrics/logs/psnr_logfile-6.txt'" -f null -
Input #0, matroska,webm, from 'G:\Аниме\[Топ]\Рыцарь-вампир\ТВ-1\[JamClub] Vampire Knight - 03_HEVC.mkv':
  Metadata:
    COMPATIBLE_BRANDS: isomiso2avc1mp41
    MAJOR_BRAND     : isom
    MINOR_VERSION   : 512
    ENCODER         : Lavf61.7.100
  Duration: 00:24:21.73, start: -0.001000, bitrate: 1054 kb/s
  Stream #0:0: Video: hevc (Main 10), yuv420p10le(tv, bt709, progressive), 1920x1080 [SAR 1:1 DAR 16:9], 23.98 fps, 23.98 tbr, 1k tbn (default)
      Metadata:
        HANDLER_NAME    : VideoHandler
        VENDOR_ID       : [0][0][0][0]
        ENCODER         : Lavc61.19.100 libx265
        BPS             : 856060
        DURATION        : 00:24:21.668708333
        NUMBER_OF_FRAMES: 43673
        NUMBER_OF_BYTES : 156409503
        _STATISTICS_WRITING_APP: mkvpropedit v66.0.0 ('Josie') 64-bit
        _STATISTICS_WRITING_DATE_UTC: 2025-06-16 07:29:48
        _STATISTICS_TAGS: BPS DURATION NUMBER_OF_FRAMES NUMBER_OF_BYTES
  Stream #0:1(eng): Audio: aac (LC), 48000 Hz, stereo, fltp (default)
      Metadata:
        HANDLER_NAME    : SoundHandler
        VENDOR_ID       : [0][0][0][0]
        ENCODER         : Lavc61.19.100 aac
        BPS             : 194530
        DURATION        : 00:24:21.690000000
        NUMBER_OF_FRAMES: 68518
        NUMBER_OF_BYTES : 35542877
        _STATISTICS_WRITING_APP: mkvpropedit v66.0.0 ('Josie') 64-bit
        _STATISTICS_WRITING_DATE_UTC: 2025-06-16 07:29:48
        _STATISTICS_TAGS: BPS DURATION NUMBER_OF_FRAMES NUMBER_OF_BYTES
Input #1, mov,mp4,m4a,3gp,3g2,mj2, from 'G:\Аниме\[Топ]\Рыцарь-вампир\ТВ-1\[JamClub] Vampire Knight - 03.mp4':
  Metadata:
    major_brand     : isom
    minor_version   : 512
    compatible_brands: isomiso2avc1mp41
    encoder         : Lavf60.16.100
  Duration: 00:24:21.71, start: 0.000000, bitrate: 3784 kb/s
  Stream #1:0[0x1](und): Video: h264 (High) (avc1 / 0x31637661), yuv420p(progressive), 1920x1080 [SAR 1:1 DAR 16:9], 3584 kb/s, 29.88 fps, 23.98 tbr, 90k tbn (default)
      Metadata:
        handler_name    : VideoHandler
        vendor_id       : [0][0][0][0]
  Stream #1:1[0x2](eng): Audio: aac (LC) (mp4a / 0x6134706D), 48000 Hz, stereo, fltp, 191 kb/s (default)
      Metadata:
        handler_name    : SoundHandler
        vendor_id       : [0][0][0][0]
Stream mapping:
  Stream #0:0 (hevc) -> settb:default
  Stream #1:0 (h264) -> settb:default
  psnr:default -> Stream #0:0 (wrapped_avframe)
  Stream #0:1 -> #0:1 (aac (native) -> pcm_s16le (native))
Output #0, null, to 'pipe:':
  Metadata:
    COMPATIBLE_BRANDS: isomiso2avc1mp41
    MAJOR_BRAND     : isom
    MINOR_VERSION   : 512
    encoder         : Lavf61.7.100
  Stream #0:0: Video: wrapped_avframe, yuv420p10le(tv, bt709, progressive), 1920x1080 [SAR 1:1 DAR 16:9], q=2-31, 200 kb/s, 23.98 fps, 23.98 tbn
      Metadata:
        encoder         : Lavc61.19.100 wrapped_avframe
  Stream #0:1(eng): Audio: pcm_s16le, 48000 Hz, stereo, s16, 1536 kb/s (default)
      Metadata:
        HANDLER_NAME    : SoundHandler
        VENDOR_ID       : [0][0][0][0]
        _STATISTICS_TAGS: BPS DURATION NUMBER_OF_FRAMES NUMBER_OF_BYTES
        BPS             : 194530
        DURATION        : 00:24:21.690000000
        NUMBER_OF_FRAMES: 68518
        NUMBER_OF_BYTES : 35542877
        _STATISTICS_WRITING_APP: mkvpropedit v66.0.0 ('Josie') 64-bit
        _STATISTICS_WRITING_DATE_UTC: 2025-06-16 07:29:48
        encoder         : Lavc61.19.100 pcm_s16le
frame=  120 fps=0.0 q=-0.0 size=N/A time=00:00:05.00 bitrate=N/A speed=9.73x    frame=  287 fps=276 q=-0.0 size=N/A time=00:00:11.97 bitrate=N/A speed=11.5x    frame=  491 fps=316 q=-0.0 size=N/A time=00:00:20.47 bitrate=N/A speed=13.2x    frame=  724 fps=351 q=-0.0 size=N/A time=00:00:30.19 bitrate=N/A speed=14.6x    frame=  953 fps=368 q=-0.0 size=N/A time=00:00:39.74 bitrate=N/A speed=15.4x    frame= 1193 fps=385 q=-0.0 size=N/A time=00:00:49.75 bitrate=N/A speed=16.1x    frame= 1419 fps=393 q=-0.0 size=N/A time=00:00:59.18 bitrate=N/A speed=16.4x    frame= 1616 fps=391 q=-0.0 size=N/A time=00:01:07.40 bitrate=N/A speed=16.3x    frame= 1815 fps=391 q=-0.0 size=N/A time=00:01:15.70 bitrate=N/A speed=16.3x    frame= 1971 fps=382 q=-0.0 size=N/A time=00:01:22.20 bitrate=N/A speed=15.9x    frame= 2135 fps=376 q=-0.0 size=N/A time=00:01:29.04 bitrate=N/A speed=15.7x    frame= 2313 fps=374 q=-0.0 size=N/A time=00:01:36.47 bitrate=N/A speed=15.6x    frame= 2477 fps=370 q=-0.0 size=N/A time=00:01:43.31 bitrate=N/A speed=15.4x    frame= 2681 fps=371 q=-0.0 size=N/A time=00:01:51.82 bitrate=N/A speed=15.5x    frame= 2849 fps=368 q=-0.0 size=N/A time=00:01:58.82 bitrate=N/A speed=15.3x    frame= 3008 fps=364 q=-0.0 size=N/A time=00:02:05.45 bitrate=N/A speed=15.2x    frame= 3172 fps=362 q=-0.0 size=N/A time=00:02:12.29 bitrate=N/A speed=15.1x    frame= 3355 fps=361 q=-0.0 size=N/A time=00:02:19.93 bitrate=N/A speed=15.1x    frame= 3533 fps=360 q=-0.0 size=N/A time=00:02:27.35 bitrate=N/A speed=  15x    frame= 3729 fps=362 q=-0.0 size=N/A time=00:02:35.53 bitrate=N/A speed=15.1x    frame= 3929 fps=362 q=-0.0 size=N/A time=00:02:43.87 bitrate=N/A speed=15.1x    frame= 4140 fps=365 q=-0.0 size=N/A time=00:02:52.67 bitrate=N/A speed=15.2x    frame= 4381 fps=369 q=-0.0 size=N/A time=00:03:02.72 bitrate=N/A speed=15.4x    frame= 4618 fps=373 q=-0.0 size=N/A time=00:03:12.60 bitrate=N/A speed=15.5x    frame= 4831 fps=375 q=-0.0 size=N/A time=00:03:21.49 bitrate=N/A speed=15.6x    frame= 5041 fps=376 q=-0.0 size=N/A time=00:03:30.25 bitrate=N/A speed=15.7x    frame= 5261 fps=378 q=-0.0 size=N/A time=00:03:39.42 bitrate=N/A speed=15.8x    frame= 5469 fps=378 q=-0.0 size=N/A time=00:03:48.10 bitrate=N/A speed=15.8x    frame= 5712 fps=382 q=-0.0 size=N/A time=00:03:58.23 bitrate=N/A speed=15.9x    frame= 5935 fps=384 q=-0.0 size=N/A time=00:04:07.53 bitrate=N/A speed=  16x    frame= 6162 fps=385 q=-0.0 size=N/A time=00:04:17.00 bitrate=N/A speed=16.1x    frame= 6372 fps=386 q=-0.0 size=N/A time=00:04:25.76 bitrate=N/A speed=16.1x    frame= 6604 fps=388 q=-0.0 size=N/A time=00:04:35.44 bitrate=N/A speed=16.2x    frame= 6821 fps=389 q=-0.0 size=N/A time=00:04:44.49 bitrate=N/A speed=16.2x    frame= 7045 fps=390 q=-0.0 size=N/A time=00:04:53.83 bitrate=N/A speed=16.3x    frame= 7284 fps=392 q=-0.0 size=N/A time=00:05:03.80 bitrate=N/A speed=16.4x    frame= 7517 fps=394 q=-0.0 size=N/A time=00:05:13.52 bitrate=N/A speed=16.4x    frame= 7726 fps=394 q=-0.0 size=N/A time=00:05:22.23 bitrate=N/A speed=16.4x    frame= 7943 fps=395 q=-0.0 size=N/A time=00:05:31.28 bitrate=N/A speed=16.5x    frame= 8155 fps=395 q=-0.0 size=N/A time=00:05:40.13 bitrate=N/A speed=16.5x    frame= 8377 fps=396 q=-0.0 size=N/A time=00:05:49.39 bitrate=N/A speed=16.5x    frame= 8572 fps=396 q=-0.0 size=N/A time=00:05:57.52 bitrate=N/A speed=16.5x    frame= 8785 fps=396 q=-0.0 size=N/A time=00:06:06.40 bitrate=N/A speed=16.5x    frame= 8997 fps=396 q=-0.0 size=N/A time=00:06:15.29 bitrate=N/A speed=16.5x    frame= 9219 fps=397 q=-0.0 size=N/A time=00:06:24.50 bitrate=N/A speed=16.6x    frame= 9409 fps=396 q=-0.0 size=N/A time=00:06:32.43 bitrate=N/A speed=16.5x    frame= 9642 fps=398 q=-0.0 size=N/A time=00:06:42.15 bitrate=N/A speed=16.6x    frame= 9858 fps=398 q=-0.0 size=N/A time=00:06:51.16 bitrate=N/A speed=16.6x    frame=10077 fps=398 q=-0.0 size=N/A time=00:07:00.29 bitrate=N/A speed=16.6x    frame=10318 fps=400 q=-0.0 size=N/A time=00:07:10.34 bitrate=N/A speed=16.7x    frame=10563 fps=401 q=-0.0 size=N/A time=00:07:20.56 bitrate=N/A speed=16.7x    frame=10789 fps=402 q=-0.0 size=N/A time=00:07:29.99 bitrate=N/A speed=16.8x    frame=11013 fps=403 q=-0.0 size=N/A time=00:07:39.33 bitrate=N/A speed=16.8x    frame=11252 fps=404 q=-0.0 size=N/A time=00:07:49.30 bitrate=N/A speed=16.8x    frame=11464 fps=404 q=-0.0 size=N/A time=00:07:58.14 bitrate=N/A speed=16.8x    frame=11697 fps=405 q=-0.0 size=N/A time=00:08:07.86 bitrate=N/A speed=16.9x    frame=11927 fps=405 q=-0.0 size=N/A time=00:08:17.45 bitrate=N/A speed=16.9x    frame=12161 fps=406 q=-0.0 size=N/A time=00:08:27.21 bitrate=N/A speed=16.9x    frame=12358 fps=406 q=-0.0 size=N/A time=00:08:35.43 bitrate=N/A speed=16.9x    frame=12566 fps=406 q=-0.0 size=N/A time=00:08:44.10 bitrate=N/A speed=16.9x    frame=12792 fps=406 q=-0.0 size=N/A time=00:08:53.53 bitrate=N/A speed=  17x    frame=13001 fps=406 q=-0.0 size=N/A time=00:09:02.25 bitrate=N/A speed=  17x    frame=13181 fps=405 q=-0.0 size=N/A time=00:09:09.75 bitrate=N/A speed=16.9x    frame=13420 fps=406 q=-0.0 size=N/A time=00:09:19.72 bitrate=N/A speed=16.9x    frame=13654 fps=407 q=-0.0 size=N/A time=00:09:29.48 bitrate=N/A speed=  17x    frame=13891 fps=408 q=-0.0 size=N/A time=00:09:39.37 bitrate=N/A speed=  17x    frame=14084 fps=407 q=-0.0 size=N/A time=00:09:47.42 bitrate=N/A speed=  17x    frame=14286 fps=407 q=-0.0 size=N/A time=00:09:55.84 bitrate=N/A speed=  17x    frame=14517 fps=408 q=-0.0 size=N/A time=00:10:05.47 bitrate=N/A speed=  17x    frame=14732 fps=408 q=-0.0 size=N/A time=00:10:14.44 bitrate=N/A speed=  17x    frame=14943 fps=408 q=-0.0 size=N/A time=00:10:23.24 bitrate=N/A speed=  17x    frame=15173 fps=408 q=-0.0 size=N/A time=00:10:32.84 bitrate=N/A speed=  17x    frame=15408 fps=409 q=-0.0 size=N/A time=00:10:42.64 bitrate=N/A speed=17.1x    frame=15634 fps=409 q=-0.0 size=N/A time=00:10:52.06 bitrate=N/A speed=17.1x    frame=15864 fps=410 q=-0.0 size=N/A time=00:11:01.66 bitrate=N/A speed=17.1x    frame=16081 fps=410 q=-0.0 size=N/A time=00:11:10.71 bitrate=N/A speed=17.1x    frame=16285 fps=410 q=-0.0 size=N/A time=00:11:19.22 bitrate=N/A speed=17.1x    frame=16530 fps=411 q=-0.0 size=N/A time=00:11:29.43 bitrate=N/A speed=17.1x    frame=16769 fps=411 q=-0.0 size=N/A time=00:11:39.40 bitrate=N/A speed=17.2x    frame=16996 fps=412 q=-0.0 size=N/A time=00:11:48.87 bitrate=N/A speed=17.2x    frame=17236 fps=412 q=-0.0 size=N/A time=00:11:58.88 bitrate=N/A speed=17.2x    frame=17459 fps=413 q=-0.0 size=N/A time=00:12:08.18 bitrate=N/A speed=17.2x    frame=17660 fps=412 q=-0.0 size=N/A time=00:12:16.56 bitrate=N/A speed=17.2x    frame=17847 fps=412 q=-0.0 size=N/A time=00:12:24.36 bitrate=N/A speed=17.2x    frame=18055 fps=412 q=-0.0 size=N/A time=00:12:33.04 bitrate=N/A speed=17.2x    frame=18281 fps=412 q=-0.0 size=N/A time=00:12:42.47 bitrate=N/A speed=17.2x    frame=18497 fps=412 q=-0.0 size=N/A time=00:12:51.47 bitrate=N/A speed=17.2x    frame=18731 fps=412 q=-0.0 size=N/A time=00:13:01.23 bitrate=N/A speed=17.2x    frame=18933 fps=412 q=-0.0 size=N/A time=00:13:09.66 bitrate=N/A speed=17.2x    frame=19137 fps=412 q=-0.0 size=N/A time=00:13:18.17 bitrate=N/A speed=17.2x    frame=19348 fps=412 q=-0.0 size=N/A time=00:13:26.97 bitrate=N/A speed=17.2x    frame=19555 fps=412 q=-0.0 size=N/A time=00:13:35.60 bitrate=N/A speed=17.2x    frame=19758 fps=412 q=-0.0 size=N/A time=00:13:44.07 bitrate=N/A speed=17.2x    frame=19970 fps=412 q=-0.0 size=N/A time=00:13:52.95 bitrate=N/A speed=17.2x    frame=20190 fps=412 q=-0.0 size=N/A time=00:14:02.09 bitrate=N/A speed=17.2x    frame=20406 fps=412 q=-0.0 size=N/A time=00:14:11.10 bitrate=N/A speed=17.2x    frame=20617 fps=412 q=-0.0 size=N/A time=00:14:19.90 bitrate=N/A speed=17.2x    frame=20846 fps=412 q=-0.0 size=N/A time=00:14:29.45 bitrate=N/A speed=17.2x    frame=21037 fps=412 q=-0.0 size=N/A time=00:14:37.41 bitrate=N/A speed=17.2x    frame=21264 fps=412 q=-0.0 size=N/A time=00:14:46.88 bitrate=N/A speed=17.2x    frame=21485 fps=412 q=-0.0 size=N/A time=00:14:56.10 bitrate=N/A speed=17.2x    frame=21689 fps=412 q=-0.0 size=N/A time=00:15:04.61 bitrate=N/A speed=17.2x    frame=21911 fps=412 q=-0.0 size=N/A time=00:15:13.87 bitrate=N/A speed=17.2x    frame=22148 fps=413 q=-0.0 size=N/A time=00:15:23.75 bitrate=N/A speed=17.2x    frame=22365 fps=413 q=-0.0 size=N/A time=00:15:32.80 bitrate=N/A speed=17.2x    frame=22607 fps=413 q=-0.0 size=N/A time=00:15:42.90 bitrate=N/A speed=17.2x    frame=22830 fps=413 q=-0.0 size=N/A time=00:15:52.20 bitrate=N/A speed=17.2x    frame=23031 fps=413 q=-0.0 size=N/A time=00:16:00.58 bitrate=N/A speed=17.2x    frame=23246 fps=413 q=-0.0 size=N/A time=00:16:09.55 bitrate=N/A speed=17.2x    frame=23484 fps=414 q=-0.0 size=N/A time=00:16:19.47 bitrate=N/A speed=17.3x    frame=23728 fps=414 q=-0.0 size=N/A time=00:16:29.65 bitrate=N/A speed=17.3x    frame=23968 fps=415 q=-0.0 size=N/A time=00:16:39.66 bitrate=N/A speed=17.3x    frame=24187 fps=415 q=-0.0 size=N/A time=00:16:48.79 bitrate=N/A speed=17.3x    frame=24412 fps=415 q=-0.0 size=N/A time=00:16:58.18 bitrate=N/A speed=17.3x    frame=24653 fps=415 q=-0.0 size=N/A time=00:17:08.23 bitrate=N/A speed=17.3x    frame=24900 fps=416 q=-0.0 size=N/A time=00:17:18.53 bitrate=N/A speed=17.3x    frame=25109 fps=416 q=-0.0 size=N/A time=00:17:27.25 bitrate=N/A speed=17.3x    frame=25327 fps=416 q=-0.0 size=N/A time=00:17:36.34 bitrate=N/A speed=17.3x    frame=25549 fps=416 q=-0.0 size=N/A time=00:17:45.60 bitrate=N/A speed=17.3x    frame=25786 fps=416 q=-0.0 size=N/A time=00:17:55.49 bitrate=N/A speed=17.4x    frame=26029 fps=417 q=-0.0 size=N/A time=00:18:05.62 bitrate=N/A speed=17.4x    frame=26265 fps=417 q=-0.0 size=N/A time=00:18:15.46 bitrate=N/A speed=17.4x    frame=26500 fps=417 q=-0.0 size=N/A time=00:18:25.27 bitrate=N/A speed=17.4x    frame=26725 fps=417 q=-0.0 size=N/A time=00:18:34.65 bitrate=N/A speed=17.4x    frame=26952 fps=418 q=-0.0 size=N/A time=00:18:44.12 bitrate=N/A speed=17.4x    frame=27194 fps=418 q=-0.0 size=N/A time=00:18:54.21 bitrate=N/A speed=17.4x    frame=27429 fps=418 q=-0.0 size=N/A time=00:19:04.01 bitrate=N/A speed=17.5x    frame=27657 fps=419 q=-0.0 size=N/A time=00:19:13.52 bitrate=N/A speed=17.5x    frame=27897 fps=419 q=-0.0 size=N/A time=00:19:23.53 bitrate=N/A speed=17.5x    frame=28117 fps=419 q=-0.0 size=N/A time=00:19:32.71 bitrate=N/A speed=17.5x    frame=28349 fps=419 q=-0.0 size=N/A time=00:19:42.38 bitrate=N/A speed=17.5x    frame=28572 fps=419 q=-0.0 size=N/A time=00:19:51.69 bitrate=N/A speed=17.5x    frame=28794 fps=419 q=-0.0 size=N/A time=00:20:00.94 bitrate=N/A speed=17.5x    frame=29009 fps=419 q=-0.0 size=N/A time=00:20:09.91 bitrate=N/A speed=17.5x    frame=29239 fps=420 q=-0.0 size=N/A time=00:20:19.50 bitrate=N/A speed=17.5x    frame=29488 fps=420 q=-0.0 size=N/A time=00:20:29.89 bitrate=N/A speed=17.5x    frame=29718 fps=420 q=-0.0 size=N/A time=00:20:39.48 bitrate=N/A speed=17.5x    frame=29964 fps=421 q=-0.0 size=N/A time=00:20:49.74 bitrate=N/A speed=17.5x    frame=30205 fps=421 q=-0.0 size=N/A time=00:20:59.80 bitrate=N/A speed=17.6x    frame=30437 fps=421 q=-0.0 size=N/A time=00:21:09.47 bitrate=N/A speed=17.6x    frame=30660 fps=421 q=-0.0 size=N/A time=00:21:18.77 bitrate=N/A speed=17.6x    frame=30884 fps=421 q=-0.0 size=N/A time=00:21:28.12 bitrate=N/A speed=17.6x    frame=31124 fps=422 q=-0.0 size=N/A time=00:21:38.13 bitrate=N/A speed=17.6x    frame=31356 fps=422 q=-0.0 size=N/A time=00:21:47.80 bitrate=N/A speed=17.6x    frame=31583 fps=422 q=-0.0 size=N/A time=00:21:57.27 bitrate=N/A speed=17.6x    frame=31802 fps=422 q=-0.0 size=N/A time=00:22:06.40 bitrate=N/A speed=17.6x    frame=32025 fps=422 q=-0.0 size=N/A time=00:22:15.70 bitrate=N/A speed=17.6x    frame=32253 fps=422 q=-0.0 size=N/A time=00:22:25.21 bitrate=N/A speed=17.6x    frame=32493 fps=423 q=-0.0 size=N/A time=00:22:35.22 bitrate=N/A speed=17.6x    frame=32733 fps=423 q=-0.0 size=N/A time=00:22:45.23 bitrate=N/A speed=17.6x    frame=32954 fps=423 q=-0.0 size=N/A time=00:22:54.45 bitrate=N/A speed=17.6x    frame=33158 fps=423 q=-0.0 size=N/A time=00:23:02.96 bitrate=N/A speed=17.6x    frame=33364 fps=423 q=-0.0 size=N/A time=00:23:11.55 bitrate=N/A speed=17.6x    frame=33585 fps=423 q=-0.0 size=N/A time=00:23:20.77 bitrate=N/A speed=17.6x    frame=33819 fps=423 q=-0.0 size=N/A time=00:23:30.53 bitrate=N/A speed=17.6x    frame=34064 fps=423 q=-0.0 size=N/A time=00:23:40.75 bitrate=N/A speed=17.6x    frame=34302 fps=423 q=-0.0 size=N/A time=00:23:50.67 bitrate=N/A speed=17.7x    frame=34501 fps=423 q=-0.0 size=N/A time=00:23:58.97 bitrate=N/A speed=17.6x    frame=34709 fps=423 q=-0.0 size=N/A time=00:24:07.65 bitrate=N/A speed=17.6x    frame=34931 fps=423 q=-0.0 size=N/A time=00:24:16.91 bitrate=N/A speed=17.6x    [Parsed_psnr_10 @ 000001d1a4d18800] PSNR y:49.186542 u:51.209908 v:51.277393 average:49.770213 min:37.687346 max:inf
[out#0/null @ 000001d1a3170e00] video:15058KiB audio:274072KiB subtitle:0KiB other streams:0KiB global headers:0KiB muxing overhead: unknown
frame=35045 fps=423 q=-0.0 Lsize=N/A time=00:24:21.66 bitrate=N/A speed=17.7x    
